# xmcd
#
# Track frame offsets: 
#        150
#        32918
#        71985
#        93313
#        117110
#        156465
#        205938
#
# Disc length: 3549 seconds
#
# Revision: 1
# Processed by: cddbd v1.5.2PL0 Copyright (c) Steve Scherf et al.
# Submitted via: ExactAudioCopy v0.99pb3
#
DISCID=620ddb07
DTITLE=John Mayall - Live At The Marquee 1969 - Music From The Origina
DTITLE=l Turning Point Film Soundtrack
DYEAR=1999
DGENRE=
TTITLE0=Can't Sleep This Night
TTITLE1=So Hard To Share
TTITLE2=Don't Waste My Time
TTITLE3=I'm Gonna Fight For You JB
TTITLE4=The Laws Must Change
TTITLE5=California (1)
TTITLE6=California (2)
EXTD=
EXTT0=
EXTT1=
EXTT2=
EXTT3=
EXTT4=
EXTT5=
EXTT6=
PLAYORDER=
